<mxfile host="app.diagrams.net" modified="2020-11-05T12:20:12.649Z" agent="5.0 (Windows NT 10.0; Win64; x64) AppleWebKit/537.36 (KHTML, like Gecko) Chrome/86.0.4240.183 Safari/537.36" etag="I4zL6FkN5IewhFW3s_ll" version="13.9.1" type="github">
  <diagram id="Y6bNiHgx08dd5_KGKXyz" name="Page-1">
    <mxGraphModel dx="1422" dy="762" grid="1" gridSize="20" guides="1" tooltips="1" connect="1" arrows="1" fold="1" page="1" pageScale="1" pageWidth="1654" pageHeight="1169" background="#ffffff" math="0" shadow="0">
      <root>
        <mxCell id="0" />
        <mxCell id="1" parent="0" />
        <mxCell id="ytFuWV6_h_YcnBKLgh8U-27" value="" style="whiteSpace=wrap;html=1;aspect=fixed;" vertex="1" parent="1">
          <mxGeometry x="424.5" y="293" width="151" height="151" as="geometry" />
        </mxCell>
        <mxCell id="ytFuWV6_h_YcnBKLgh8U-3" value="产品&lt;br&gt;" style="shape=umlActor;verticalLabelPosition=bottom;verticalAlign=top;html=1;outlineConnect=0;" vertex="1" parent="1">
          <mxGeometry x="475" y="160" width="30" height="60" as="geometry" />
        </mxCell>
        <mxCell id="ytFuWV6_h_YcnBKLgh8U-8" value="研发&lt;br&gt;" style="shape=umlActor;verticalLabelPosition=bottom;verticalAlign=top;html=1;outlineConnect=0;" vertex="1" parent="1">
          <mxGeometry x="750" y="160" width="30" height="60" as="geometry" />
        </mxCell>
        <mxCell id="ytFuWV6_h_YcnBKLgh8U-9" value="生产&lt;br&gt;" style="shape=umlActor;verticalLabelPosition=bottom;verticalAlign=top;html=1;outlineConnect=0;" vertex="1" parent="1">
          <mxGeometry x="210" y="160" width="30" height="60" as="geometry" />
        </mxCell>
        <mxCell id="ytFuWV6_h_YcnBKLgh8U-13" value="badcase" style="ellipse;whiteSpace=wrap;html=1;" vertex="1" parent="1">
          <mxGeometry x="180" y="293" width="70" height="30" as="geometry" />
        </mxCell>
        <mxCell id="ytFuWV6_h_YcnBKLgh8U-14" value="badcase" style="ellipse;whiteSpace=wrap;html=1;" vertex="1" parent="1">
          <mxGeometry x="190" y="303" width="70" height="30" as="geometry" />
        </mxCell>
        <mxCell id="ytFuWV6_h_YcnBKLgh8U-15" value="badcase" style="ellipse;whiteSpace=wrap;html=1;" vertex="1" parent="1">
          <mxGeometry x="200" y="313" width="70" height="30" as="geometry" />
        </mxCell>
        <mxCell id="ytFuWV6_h_YcnBKLgh8U-16" value="badcase" style="ellipse;whiteSpace=wrap;html=1;" vertex="1" parent="1">
          <mxGeometry x="210" y="323" width="70" height="30" as="geometry" />
        </mxCell>
        <mxCell id="ytFuWV6_h_YcnBKLgh8U-17" value="badcase" style="ellipse;whiteSpace=wrap;html=1;" vertex="1" parent="1">
          <mxGeometry x="180" y="377" width="70" height="30" as="geometry" />
        </mxCell>
        <mxCell id="ytFuWV6_h_YcnBKLgh8U-18" value="badcase" style="ellipse;whiteSpace=wrap;html=1;" vertex="1" parent="1">
          <mxGeometry x="190" y="387" width="70" height="30" as="geometry" />
        </mxCell>
        <mxCell id="ytFuWV6_h_YcnBKLgh8U-19" value="badcase" style="ellipse;whiteSpace=wrap;html=1;" vertex="1" parent="1">
          <mxGeometry x="200" y="397" width="70" height="30" as="geometry" />
        </mxCell>
        <mxCell id="ytFuWV6_h_YcnBKLgh8U-20" value="badcase" style="ellipse;whiteSpace=wrap;html=1;" vertex="1" parent="1">
          <mxGeometry x="210" y="407" width="70" height="30" as="geometry" />
        </mxCell>
        <mxCell id="ytFuWV6_h_YcnBKLgh8U-21" value="issue_A" style="ellipse;shape=cloud;whiteSpace=wrap;html=1;" vertex="1" parent="1">
          <mxGeometry x="450" y="298" width="100" height="45" as="geometry" />
        </mxCell>
        <mxCell id="ytFuWV6_h_YcnBKLgh8U-22" value="issue_B" style="ellipse;shape=cloud;whiteSpace=wrap;html=1;" vertex="1" parent="1">
          <mxGeometry x="450" y="387" width="100" height="45" as="geometry" />
        </mxCell>
        <mxCell id="ytFuWV6_h_YcnBKLgh8U-24" value="" style="endArrow=classic;html=1;" edge="1" parent="1">
          <mxGeometry width="50" height="50" relative="1" as="geometry">
            <mxPoint x="285" y="326" as="sourcePoint" />
            <mxPoint x="455" y="326" as="targetPoint" />
          </mxGeometry>
        </mxCell>
        <mxCell id="ytFuWV6_h_YcnBKLgh8U-36" value="同类问题&lt;br&gt;归类到一个issue" style="edgeLabel;html=1;align=center;verticalAlign=middle;resizable=0;points=[];" vertex="1" connectable="0" parent="ytFuWV6_h_YcnBKLgh8U-24">
          <mxGeometry x="-0.2824" y="2" relative="1" as="geometry">
            <mxPoint x="4" y="-21" as="offset" />
          </mxGeometry>
        </mxCell>
        <mxCell id="ytFuWV6_h_YcnBKLgh8U-25" value="" style="endArrow=classic;html=1;" edge="1" parent="1">
          <mxGeometry width="50" height="50" relative="1" as="geometry">
            <mxPoint x="288" y="410" as="sourcePoint" />
            <mxPoint x="458" y="410" as="targetPoint" />
          </mxGeometry>
        </mxCell>
        <mxCell id="ytFuWV6_h_YcnBKLgh8U-26" value="创建" style="endArrow=classic;html=1;entryX=0.4;entryY=0.1;entryDx=0;entryDy=0;entryPerimeter=0;" edge="1" parent="1">
          <mxGeometry width="50" height="50" relative="1" as="geometry">
            <mxPoint x="490" y="239" as="sourcePoint" />
            <mxPoint x="490" y="291.5" as="targetPoint" />
          </mxGeometry>
        </mxCell>
        <mxCell id="ytFuWV6_h_YcnBKLgh8U-29" value="跟进" style="endArrow=classic;html=1;entryX=0.39;entryY=0.933;entryDx=0;entryDy=0;entryPerimeter=0;" edge="1" parent="1" target="ytFuWV6_h_YcnBKLgh8U-22">
          <mxGeometry width="50" height="50" relative="1" as="geometry">
            <mxPoint x="489" y="520" as="sourcePoint" />
            <mxPoint x="520" y="470" as="targetPoint" />
            <Array as="points">
              <mxPoint x="489" y="480" />
            </Array>
          </mxGeometry>
        </mxCell>
        <mxCell id="ytFuWV6_h_YcnBKLgh8U-32" value="&lt;span&gt;fix algorithm&amp;nbsp;&lt;/span&gt;" style="rounded=1;whiteSpace=wrap;html=1;" vertex="1" parent="1">
          <mxGeometry x="730" y="517" width="100" height="43" as="geometry" />
        </mxCell>
        <mxCell id="ytFuWV6_h_YcnBKLgh8U-33" value="提研发需求" style="rounded=1;whiteSpace=wrap;html=1;" vertex="1" parent="1">
          <mxGeometry x="440" y="520" width="110" height="40" as="geometry" />
        </mxCell>
        <mxCell id="ytFuWV6_h_YcnBKLgh8U-34" value="" style="endArrow=classic;html=1;exitX=1;exitY=0.5;exitDx=0;exitDy=0;entryX=0;entryY=0.5;entryDx=0;entryDy=0;exitPerimeter=0;" edge="1" parent="1" source="ytFuWV6_h_YcnBKLgh8U-33" target="ytFuWV6_h_YcnBKLgh8U-32">
          <mxGeometry width="50" height="50" relative="1" as="geometry">
            <mxPoint x="600" y="550" as="sourcePoint" />
            <mxPoint x="650" y="500" as="targetPoint" />
          </mxGeometry>
        </mxCell>
        <mxCell id="ytFuWV6_h_YcnBKLgh8U-35" value="重跑整个 issue" style="rounded=1;whiteSpace=wrap;html=1;" vertex="1" parent="1">
          <mxGeometry x="730" y="610" width="100" height="46" as="geometry" />
        </mxCell>
        <mxCell id="ytFuWV6_h_YcnBKLgh8U-37" value="生成 issue 下所有 case before - after 截图对比" style="rounded=1;whiteSpace=wrap;html=1;dashed=1;" vertex="1" parent="1">
          <mxGeometry x="730" y="710" width="100" height="50" as="geometry" />
        </mxCell>
        <mxCell id="ytFuWV6_h_YcnBKLgh8U-38" value="" style="endArrow=classic;html=1;exitX=0.5;exitY=1;exitDx=0;exitDy=0;entryX=0.5;entryY=0;entryDx=0;entryDy=0;" edge="1" parent="1" source="ytFuWV6_h_YcnBKLgh8U-32" target="ytFuWV6_h_YcnBKLgh8U-35">
          <mxGeometry width="50" height="50" relative="1" as="geometry">
            <mxPoint x="900" y="620" as="sourcePoint" />
            <mxPoint x="950" y="570" as="targetPoint" />
          </mxGeometry>
        </mxCell>
        <mxCell id="ytFuWV6_h_YcnBKLgh8U-40" value="" style="endArrow=classic;html=1;exitX=0.5;exitY=1;exitDx=0;exitDy=0;entryX=0.5;entryY=0;entryDx=0;entryDy=0;" edge="1" parent="1" source="ytFuWV6_h_YcnBKLgh8U-35" target="ytFuWV6_h_YcnBKLgh8U-37">
          <mxGeometry width="50" height="50" relative="1" as="geometry">
            <mxPoint x="900" y="660" as="sourcePoint" />
            <mxPoint x="950" y="610" as="targetPoint" />
          </mxGeometry>
        </mxCell>
        <mxCell id="ytFuWV6_h_YcnBKLgh8U-42" value="&lt;span&gt;跟进 issue ，查看问题是否已经解决&lt;/span&gt;" style="rhombus;whiteSpace=wrap;html=1;" vertex="1" parent="1">
          <mxGeometry x="417.25" y="681.25" width="155.5" height="107.5" as="geometry" />
        </mxCell>
        <mxCell id="ytFuWV6_h_YcnBKLgh8U-43" value="issue fixed" style="endArrow=classic;html=1;exitX=0.5;exitY=1;exitDx=0;exitDy=0;" edge="1" parent="1" source="ytFuWV6_h_YcnBKLgh8U-42">
          <mxGeometry width="50" height="50" relative="1" as="geometry">
            <mxPoint x="300" y="870" as="sourcePoint" />
            <mxPoint x="495" y="880" as="targetPoint" />
            <Array as="points">
              <mxPoint x="495" y="840" />
            </Array>
          </mxGeometry>
        </mxCell>
        <mxCell id="ytFuWV6_h_YcnBKLgh8U-44" value="issue 下所有case 加入 benchmark 支持评测" style="rounded=1;whiteSpace=wrap;html=1;" vertex="1" parent="1">
          <mxGeometry x="432.5" y="880" width="115" height="40" as="geometry" />
        </mxCell>
        <mxCell id="ytFuWV6_h_YcnBKLgh8U-45" value="" style="endArrow=classic;html=1;exitX=0;exitY=0.5;exitDx=0;exitDy=0;entryX=1;entryY=0.5;entryDx=0;entryDy=0;" edge="1" parent="1" source="ytFuWV6_h_YcnBKLgh8U-37" target="ytFuWV6_h_YcnBKLgh8U-42">
          <mxGeometry width="50" height="50" relative="1" as="geometry">
            <mxPoint x="640" y="810" as="sourcePoint" />
            <mxPoint x="690" y="760" as="targetPoint" />
          </mxGeometry>
        </mxCell>
        <mxCell id="ytFuWV6_h_YcnBKLgh8U-46" value="" style="endArrow=classic;html=1;exitX=0.5;exitY=0;exitDx=0;exitDy=0;" edge="1" parent="1" source="ytFuWV6_h_YcnBKLgh8U-42">
          <mxGeometry width="50" height="50" relative="1" as="geometry">
            <mxPoint x="560" y="610" as="sourcePoint" />
            <mxPoint x="720" y="540" as="targetPoint" />
            <Array as="points">
              <mxPoint x="620" y="681" />
              <mxPoint x="620" y="540" />
            </Array>
          </mxGeometry>
        </mxCell>
        <mxCell id="ytFuWV6_h_YcnBKLgh8U-47" value="issue not fixed" style="edgeLabel;html=1;align=center;verticalAlign=middle;resizable=0;points=[];" vertex="1" connectable="0" parent="ytFuWV6_h_YcnBKLgh8U-46">
          <mxGeometry x="-0.3274" y="46" relative="1" as="geometry">
            <mxPoint as="offset" />
          </mxGeometry>
        </mxCell>
        <mxCell id="ytFuWV6_h_YcnBKLgh8U-48" value="badcase" style="ellipse;whiteSpace=wrap;html=1;" vertex="1" parent="1">
          <mxGeometry x="890" y="604" width="70" height="30" as="geometry" />
        </mxCell>
        <mxCell id="ytFuWV6_h_YcnBKLgh8U-49" value="badcase" style="ellipse;whiteSpace=wrap;html=1;" vertex="1" parent="1">
          <mxGeometry x="900" y="614" width="70" height="30" as="geometry" />
        </mxCell>
        <mxCell id="ytFuWV6_h_YcnBKLgh8U-50" value="badcase" style="ellipse;whiteSpace=wrap;html=1;" vertex="1" parent="1">
          <mxGeometry x="910" y="624" width="70" height="30" as="geometry" />
        </mxCell>
        <mxCell id="ytFuWV6_h_YcnBKLgh8U-51" value="badcase" style="ellipse;whiteSpace=wrap;html=1;" vertex="1" parent="1">
          <mxGeometry x="920" y="634" width="70" height="30" as="geometry" />
        </mxCell>
        <mxCell id="ytFuWV6_h_YcnBKLgh8U-53" value="" style="endArrow=classic;html=1;" edge="1" parent="1" source="ytFuWV6_h_YcnBKLgh8U-35">
          <mxGeometry width="50" height="50" relative="1" as="geometry">
            <mxPoint x="830" y="683" as="sourcePoint" />
            <mxPoint x="900.7106781186548" y="633" as="targetPoint" />
          </mxGeometry>
        </mxCell>
        <mxCell id="ytFuWV6_h_YcnBKLgh8U-54" value="before" style="text;html=1;align=center;verticalAlign=middle;resizable=0;points=[];autosize=1;" vertex="1" parent="1">
          <mxGeometry x="130" y="333" width="60" height="20" as="geometry" />
        </mxCell>
        <mxCell id="ytFuWV6_h_YcnBKLgh8U-55" value="after" style="text;html=1;align=center;verticalAlign=middle;resizable=0;points=[];autosize=1;" vertex="1" parent="1">
          <mxGeometry x="925" y="681.25" width="60" height="20" as="geometry" />
        </mxCell>
        <mxCell id="ytFuWV6_h_YcnBKLgh8U-56" value="" style="endArrow=none;dashed=1;html=1;dashPattern=1 3;strokeWidth=2;" edge="1" parent="1">
          <mxGeometry width="50" height="50" relative="1" as="geometry">
            <mxPoint x="320" y="980" as="sourcePoint" />
            <mxPoint x="320" y="80" as="targetPoint" />
          </mxGeometry>
        </mxCell>
        <mxCell id="ytFuWV6_h_YcnBKLgh8U-57" value="" style="endArrow=none;dashed=1;html=1;dashPattern=1 3;strokeWidth=2;" edge="1" parent="1">
          <mxGeometry width="50" height="50" relative="1" as="geometry">
            <mxPoint x="720" y="980" as="sourcePoint" />
            <mxPoint x="720" y="80" as="targetPoint" />
          </mxGeometry>
        </mxCell>
      </root>
    </mxGraphModel>
  </diagram>
</mxfile>
